<svg width="193" height="60" viewBox="0 0 193 60" fill="none" xmlns="http://www.w3.org/2000/svg">
<circle cx="31.4805" cy="30" r="30" fill="#EF7F83"/>
<path d="M15.4805 15H46.4805V22.9949H15.4805V15Z" fill="white"/>
<path d="M26.9535 26.4975H35.0074V32.2081H26.9535V26.4975Z" fill="white"/>
<path d="M26.9535 35.7107H35.0074V41.4975H26.9535V35.7107Z" fill="white"/>
<path d="M23.4584 22.9949L23.4584 45H15.4805L15.4805 22.9949H23.4584Z" fill="white"/>
<path d="M46.4805 26.4975V45H38.5025V26.4975H46.4805Z" fill="white"/>
<path d="M83.0144 24.9105H75.2238V28.3592H81.2694V32.9484H75.2238V41H70.6071V20.3213H83.0144V24.9105ZM91.0237 41H86.4071V20.2938H91.0237V41ZM111.427 41H106.508L99.9536 29.1836V41H95.337V20.3213H100.256L106.851 32.1377V20.3213H111.427V41ZM130.909 41H125.99L119.436 29.1836V41H114.819V20.3213H119.738L126.333 32.1377V20.3213H130.909V41ZM140.155 24.9105V28.3592H147.217V32.9484H140.155V36.4108H148.935V41H135.538V20.2938H148.935V24.9105H140.155ZM157.603 32.8384C156.019 32.8384 154.764 32.3804 153.839 31.4644C152.923 30.5393 152.465 29.5134 152.465 28.3867V24.7731C152.465 23.6372 152.923 22.6113 153.839 21.6953C154.764 20.7793 156.019 20.3213 157.603 20.3213H167.689V24.9105H158.758C158.052 24.9105 157.7 25.2631 157.7 25.9684V27.4249C157.7 28.1302 158.052 28.4829 158.758 28.4829H162.811C164.396 28.4829 165.646 28.9409 166.562 29.8569C167.487 30.7729 167.95 31.8446 167.95 33.072V36.5482C167.95 37.6749 167.487 38.7008 166.562 39.626C165.646 40.542 164.396 41 162.811 41H152.726V36.4108H161.657C162.362 36.4108 162.715 36.0582 162.715 35.3529V33.8964C162.715 33.1911 162.362 32.8384 161.657 32.8384H157.603ZM184.354 24.8692H179.421V41H174.805V24.8692H169.886V20.2938H184.354V24.8692Z" fill="#040404"/>
</svg>
